<svg xmlns="http://www.w3.org/2000/svg" width="266" height="274.6" viewBox="0 0 266 274.6"><defs><style>.a{fill:#c02c20;}.b{fill:#151517;}.c{fill:#fff;}</style></defs><g transform="translate(-587 -520.4)"><rect class="a" width="266" height="65" rx="4" transform="translate(587 670)"/><path class="b" d="M13.2,0H65.8c41.8,0,70.8-26.4,70.8-66.6s-29-66.8-70.8-66.8H13.2ZM41.6-25v-83.4H65.8c27.4,0,41.8,18.2,41.8,41.8C107.6-44,92.2-25,65.8-25ZM220.4,2.4c30.4,0,47.2-16.2,56.8-32.8L252.8-42.2a36.162,36.162,0,0,1-32.4,19.4c-23.2,0-40.8-18.6-40.8-43.8s17.6-43.8,40.8-43.8A36.535,36.535,0,0,1,252.8-91l24.4-12c-9.4-16.6-26.4-32.6-56.8-32.6-39,0-70,28-70,69S181.4,2.4,220.4,2.4Z" transform="translate(574.8 656)"/><path class="b" d="M33.892,0h8.584L29.822-19.758c6.29-.814,12.284-5.55,12.284-14.43,0-9.1-6.438-15.17-15.836-15.17H5.476V0h7.4V-19.018h9.25Zm.592-34.188c0,5.18-3.848,8.658-9.176,8.658H12.876V-42.846H25.308C30.636-42.846,34.484-39.368,34.484-34.188ZM51.208,0H84.36V-6.512H58.608V-21.9H83.842v-6.512H58.608v-14.43H84.36v-6.512H51.208Zm77.108,0h7.178V-49.358h-7.4v37l-26.862-37H93.61V0h7.4V-37.888Zm30.192,0h7.4V-42.846h15.244v-6.512H143.19v6.512h15.318Zm60.68,0h8.14l-19.61-49.358h-9.25L178.858,0H187l4-10.212h24.2ZM203.056-42.92l9.99,26.122H193.14ZM233.248,0H263.07V-6.512H240.648V-49.358h-7.4Z" transform="translate(587 795)"/><path class="c" d="M24.444.756A19.081,19.081,0,0,0,41.139-8.127l-5.355-2.835a13.319,13.319,0,0,1-11.34,6.111c-8.505,0-15.057-6.741-15.057-16.128,0-9.45,6.552-16.128,15.057-16.128A13.319,13.319,0,0,1,35.784-31l5.355-2.835a19,19,0,0,0-16.695-8.883c-11.97,0-21.546,8.82-21.546,21.735S12.474.756,24.444.756ZM77.175,0h6.93L67.41-42.021H59.535L42.84,0h6.93l3.4-8.694h20.6ZM63.441-36.54l8.5,22.239H55ZM125.307,0h6.3V-42.021H122.6L110.376-11.844,98.154-42.021H89.145V0h6.3V-33.39L109.053,0H111.7l13.608-33.39Zm15.624,0h28.224V-5.544H147.231v-13.1h21.483v-5.544H147.231V-36.477h21.924v-5.544H140.931Zm60.291,0h7.308L197.757-16.821c5.355-.693,10.458-4.725,10.458-12.285,0-7.749-5.481-12.915-13.482-12.915h-17.7V0h6.3V-16.191h7.875Zm.5-29.106c0,4.41-3.276,7.371-7.812,7.371H183.33V-36.477h10.584C198.45-36.477,201.726-33.516,201.726-29.106ZM245.952,0h6.93l-16.7-42.021h-7.875L211.617,0h6.93l3.4-8.694h20.6ZM232.218-36.54,240.723-14.3H223.776Z" transform="translate(592.102 723)"/></g></svg>