<?xml version="1.0" standalone="no"?>
<!DOCTYPE svg PUBLIC "-//W3C//DTD SVG 20010904//EN"
 "http://www.w3.org/TR/2001/REC-SVG-20010904/DTD/svg10.dtd">
<svg version="1.0" xmlns="http://www.w3.org/2000/svg"
 width="275.000000pt" height="275.000000pt" viewBox="0 0 275.000000 275.000000"
 preserveAspectRatio="xMidYMid meet">
<metadata>
Created by potrace 1.14, written by Peter Selinger 2001-2017
</metadata>
<g transform="translate(0.000000,275.000000) scale(0.100000,-0.100000)"
fill="#000000" stroke="none">
<path d="M2010 2743 c-265 -47 -461 -203 -545 -436 -29 -80 -36 -121 -40 -232
-4 -148 32 -280 107 -396 126 -196 346 -309 596 -307 211 1 386 86 504 243 25
33 48 65 52 72 4 7 -35 31 -109 67 -64 31 -120 56 -125 56 -4 0 -18 -15 -29
-32 -56 -89 -162 -146 -282 -153 -292 -16 -493 278 -400 585 96 315 499 388
688 125 l21 -30 120 59 121 60 -22 39 c-12 21 -52 69 -89 106 -84 85 -191 143
-303 166 -38 8 -232 14 -265 8z"/>
<path d="M50 2062 l0 -668 313 2 c336 1 362 3 477 39 271 86 441 322 442 615
1 327 -180 569 -489 651 -70 19 -111 21 -410 24 l-333 4 0 -667z m632 403
c130 -27 215 -92 269 -209 33 -72 39 -99 40 -186 1 -123 -33 -217 -108 -300
-49 -55 -139 -104 -213 -116 -73 -11 -320 -11 -329 1 -5 8 -8 816 -2 821 0 1
62 2 137 2 86 1 163 -4 206 -13z"/>
<path d="M60 1248 c-19 -7 -20 -17 -20 -317 0 -237 3 -312 13 -318 17 -11
2607 -12 2630 -1 16 8 17 33 17 318 0 236 -3 311 -12 317 -16 10 -2601 11
-2628 1z"/>
<path d="M98 493 c-3 -4 -4 -116 -4 -248 l1 -239 38 -1 37 -1 0 96 0 96 46 -1
45 0 58 -95 c56 -90 60 -94 95 -95 20 -1 39 1 41 5 2 3 -23 47 -56 96 l-59 89
37 18 c53 26 76 61 80 121 5 66 -20 113 -75 142 -35 19 -59 22 -161 23 -65 1
-121 -2 -123 -6z m251 -81 c33 -24 42 -61 25 -101 -17 -39 -47 -51 -135 -51
l-69 0 0 88 0 88 78 -3 c55 -2 84 -8 101 -21z"/>
<path d="M554 251 l1 -246 159 0 160 0 7 27 c4 15 4 29 1 32 -3 3 -62 6 -131
6 l-126 0 0 75 -1 75 123 0 c122 0 123 0 129 24 3 14 3 29 0 34 -3 6 -58 10
-121 10 -64 0 -119 2 -122 6 -10 10 -10 127 0 133 5 3 62 5 127 6 125 0 133 3
122 49 -4 15 -22 17 -167 16 l-163 -1 2 -246z"/>
<path d="M977 493 c-2 -5 -3 -116 -3 -247 l1 -239 38 -2 37 -3 0 190 0 191
132 -184 c73 -101 136 -187 141 -190 5 -3 23 -6 40 -5 l32 1 1 235 c0 129 -2
241 -4 248 -2 6 -19 12 -38 12 l-34 0 -2 -182 -3 -181 -79 109 c-190 262 -183
254 -221 254 -18 0 -35 -3 -38 -7z"/>
<path d="M1472 466 l1 -33 69 0 c38 0 72 -4 76 -7 4 -4 8 -96 8 -204 1 -109 2
-202 3 -208 0 -6 16 -11 34 -10 l32 1 3 213 c2 193 4 212 20 213 9 1 43 1 75
1 l57 -1 0 34 0 34 -190 0 -189 0 1 -33z"/>
<path d="M2023 488 c-7 -12 -193 -475 -193 -482 0 -1 18 -2 40 -2 39 0 41 2
58 48 9 26 21 48 27 49 37 4 228 3 234 -1 4 -3 13 -21 21 -40 18 -48 25 -54
65 -55 19 -1 35 -1 35 0 0 6 -31 89 -44 118 -7 17 -44 110 -82 205 l-68 172
-42 0 c-24 0 -46 -6 -51 -12z m141 -299 c6 -14 -4 -16 -86 -17 -51 0 -96 2
-99 4 -4 2 16 60 44 130 l50 126 42 -114 c24 -62 46 -120 49 -129z"/>
<path d="M2370 250 l0 -245 150 0 150 0 0 32 0 33 -110 0 -110 0 0 33 c-1 17
-1 114 -1 215 l0 183 -39 -3 -40 -2 0 -246z"/>
</g>
</svg>
