<svg fill="#000000" xmlns="http://www.w3.org/2000/svg"  viewBox="0 0 50 50" width="50px" height="50px"><path d="M46,11l-8.956,0.006c-0.279-0.101-0.854-1.02-1.164-1.514C35.111,8.267,34.317,7,33,7H17c-1.317,0-2.111,1.267-2.88,2.492	C13.811,9.986,13.235,10.905,13,11H4c-1.654,0-3,1.346-3,3v26c0,1.654,1.346,3,3,3h42c1.654,0,3-1.346,3-3V14	C49,12.346,47.654,11,46,11z M31.5,19c1.381,0,2.5,1.119,2.5,2.5c0,1.381-1.119,2.5-2.5,2.5S29,22.881,29,21.5	C29,20.119,30.119,19,31.5,19z M18.5,19c1.381,0,2.5,1.119,2.5,2.5c0,1.381-1.119,2.5-2.5,2.5S16,22.881,16,21.5	C16,20.119,17.119,19,18.5,19z M34.822,29.569C34.669,29.791,30.993,35,25,35s-9.669-5.209-9.822-5.431	c-0.314-0.454-0.201-1.077,0.253-1.392c0.454-0.314,1.076-0.201,1.391,0.251C16.853,28.475,20.069,33,25,33	c4.957,0,8.146-4.523,8.178-4.569c0.314-0.454,0.936-0.568,1.392-0.253C35.023,28.492,35.137,29.115,34.822,29.569z"/></svg>