<svg xmlns="http://www.w3.org/2000/svg" width="30" height="50" viewBox="0 0 30 50"><path d="M25,0C16.449,0,10,3.012,10,7v6c0,3.988,6.449,7,15,7s15-3.012,15-7V7C40,3.012,33.551,0,25,0Zm0,5.438c5.574,0,9,1.91,9,3.281S30.574,12,25,12s-9-1.91-9-3.281S19.426,5.438,25,5.438ZM10,15v4c0,3.988,6.449,7,15,7s15-3.012,15-7V15c0,3.988-6.449,7-15,7S10,18.988,10,15Zm0,6V35c0,3.988,6.449,7,15,7s15-3.012,15-7V21c0,3.988-6.449,7-15,7S10,24.988,10,21ZM25,31a1,1,0,0,1,1,1v2a1,1,0,0,1-2,0V32A1,1,0,0,1,25,31ZM13,41.125v3.156C13,47.539,18.16,50,25,50s12-2.461,12-5.719V41.125S33.527,44,25,44,13,41.125,13,41.125Z" transform="translate(-10)"/></svg>