<svg xmlns="http://www.w3.org/2000/svg" width="50" height="50" viewBox="0 0 50 50"><path d="M9,0A1,1,0,0,0,8,1,2.56,2.56,0,0,1,6.719,3H29.281A2.563,2.563,0,0,1,28,1a1,1,0,0,0-1-1ZM6,4A1,1,0,0,0,5,5v8H31V5a1,1,0,0,0-1-1ZM5,15v4a1,1,0,0,0,1,1H30a1,1,0,0,0,1-1V15Zm33.406,4A6.393,6.393,0,0,0,32,25.375a1.189,1.189,0,0,1-.406.938,1.155,1.155,0,0,1-1,.188A71.957,71.957,0,0,0,18,25,69.786,69.786,0,0,0,4.906,26.594a5.182,5.182,0,0,0-3.75,3.281A22.12,22.12,0,0,0,0,36.5a19.408,19.408,0,0,0,.938,5.969A4.971,4.971,0,0,0,5.688,46H9V44a3.006,3.006,0,0,1,3-3H24a3.006,3.006,0,0,1,3,3v2H44a4.974,4.974,0,0,0,4.875-3.906A45.641,45.641,0,0,0,50,32.5a66.32,66.32,0,0,0-.312-6.656,5.591,5.591,0,0,0-.187-1.312A6.572,6.572,0,0,0,43,19ZM6,21v3.344A67.674,67.674,0,0,1,18,23a70.22,70.22,0,0,1,12,1.344V21Zm34.5,2A2.29,2.29,0,0,1,43,25a2.29,2.29,0,0,1-2.5,2A2.29,2.29,0,0,1,38,25,2.29,2.29,0,0,1,40.5,23Zm-1.062,7c.18-.016.379,0,.563,0a6,6,0,1,1-5.906,7H32V35h2.094A6.017,6.017,0,0,1,39.438,30ZM13,31H23v8H13Zm2,1v6h2V32Zm4,0v6h2V32Zm21,0a4,4,0,1,0,4,4A4,4,0,0,0,40,32Zm0,1a3,3,0,1,1-3,3A3.006,3.006,0,0,1,40,33Zm0,2a1,1,0,1,0,1,1A1,1,0,0,0,40,35ZM12,43a1,1,0,0,0-1,1v3.375a2.549,2.549,0,0,0,.813,1.906A2.739,2.739,0,0,0,13.656,50a2.937,2.937,0,0,0,1.063-.187A8.13,8.13,0,0,1,18,49a8.148,8.148,0,0,1,3.344.813,3.042,3.042,0,0,0,1,.188A2.613,2.613,0,0,0,25,47.375V44a1,1,0,0,0-1-1Z"/></svg>