<svg xmlns="http://www.w3.org/2000/svg" width="31" height="50" viewBox="0 0 31 50"><path d="M15,15h7.363a12.578,12.578,0,0,1,0-6H15a2,2,0,0,0-2,2v2A2,2,0,0,0,15,15Zm6.874,25.46A.974.974,0,0,0,22,40a1,1,0,0,0-1-1H20V19h1a1,1,0,0,0,1-1V17H16v1a1,1,0,0,0,1,1h1V39H17a1,1,0,0,0-1,1,.974.974,0,0,0,.126.46L9.293,47.293a1,1,0,1,0,1.414,1.414L18,41.414V49a1,1,0,0,0,2,0V41.414l7.293,7.293a1,1,0,1,0,1.414-1.414ZM24,12A11.013,11.013,0,0,0,35,23V1A11.013,11.013,0,0,0,24,12ZM39,0H37V24h2a1,1,0,0,0,1-1V1A1,1,0,0,0,39,0Z" transform="translate(-9)"/></svg>